<?xml version="1.0" encoding="iso-8859-1"?>
<!-- Generator: Adobe Illustrator 19.0.0, SVG Export Plug-In . SVG Version: 6.00 Build 0)  -->
<svg xmlns="http://www.w3.org/2000/svg" xmlns:xlink="http://www.w3.org/1999/xlink" version="1.1" id="Capa_1" x="0px" y="0px" viewBox="0 0 512.002 512.002" style="enable-background:new 0 0 512.002 512.002;" xml:space="preserve" width="512px" height="512px">
<g>
	<g>
		<path d="M388.54,0.001h-20.861c-16.821,0-32.634,6.55-44.528,18.445c-2.969,2.969-2.969,7.784,0.001,10.752    c1.484,1.485,3.431,2.227,5.376,2.227c1.945,0,3.892-0.742,5.377-2.227c9.021-9.022,21.014-13.99,33.774-13.99h20.861    c4.2,0,7.603-3.404,7.603-7.603S392.74,0.001,388.54,0.001z" fill="#aed4eb"/>
	</g>
</g>
<g>
	<g>
		<path d="M469.557,0h-56.688c-4.2,0-7.603,3.404-7.603,7.603c0,4.199,3.404,7.604,7.604,7.604h48.479    c-3.652,22.738-23.41,40.161-47.161,40.161h-57.836c-4.2,0-7.603,3.404-7.603,7.603v5.137c0,7.449-5.8,13.805-13.203,14.473    c-4.182,0.376-7.267,4.072-6.891,8.254c0.356,3.951,3.673,6.922,7.564,6.922c0.229,0,0.458-0.01,0.691-0.031    c14.593-1.314,25.788-12.789,26.947-27.151h50.332c34.724,0,62.972-28.249,62.972-62.972C477.16,3.404,473.757,0,469.557,0z" fill="#aed4eb"/>
	</g>
</g>
<g>
	<g>
		<path d="M385.375,82.418c-4.2,0-7.603,3.404-7.603,7.603v10.541c0,4.199,3.403,7.603,7.603,7.603c4.2,0,7.603-3.404,7.603-7.603    V90.021C392.978,85.822,389.575,82.418,385.375,82.418z" fill="#aed4eb"/>
	</g>
</g>
<g>
	<g>
		<path d="M412.78,82.418c-4.2,0-7.603,3.404-7.603,7.603v10.541c0,4.199,3.403,7.603,7.603,7.603c4.2,0,7.603-3.404,7.603-7.603    V90.021C420.383,85.822,416.98,82.418,412.78,82.418z" fill="#aed4eb"/>
	</g>
</g>
<g>
	<g>
		<path d="M388.677,140.582c-9.318-0.497-16.009-4.193-19.89-10.984c-2.084-3.646-6.729-4.913-10.373-2.829    c-3.647,2.083-4.914,6.727-2.829,10.374c6.517,11.406,17.68,17.846,32.283,18.625c0.138,0.007,0.275,0.011,0.412,0.011    c4.012,0,7.37-3.144,7.585-7.199C396.088,144.387,392.871,140.806,388.677,140.582z" fill="#aed4eb"/>
	</g>
</g>
<g>
	<g>
		<path d="M439.766,72.015c-4.2,0-7.603,3.404-7.603,7.603v35.837c0,30.946-25.181,56.122-56.132,56.122    c-17.14,0-33.12-7.685-43.843-21.085c-2.623-3.279-7.409-3.81-10.686-1.186c-3.279,2.624-3.811,7.409-1.186,10.687    c13.623,17.026,33.932,26.791,55.716,26.791c39.336,0,71.339-31.998,71.339-71.329V79.618    C447.37,75.419,443.966,72.015,439.766,72.015z" fill="#aed4eb"/>
	</g>
</g>
<g>
	<g>
		<path d="M342.497,184.922c-3.802-1.788-8.328-0.156-10.115,3.643c-13.479,28.652-23.267,68.241-29.104,96.406    c-0.853,4.112,1.79,8.136,5.901,8.988c0.521,0.107,1.039,0.159,1.551,0.159c3.528,0,6.693-2.471,7.437-6.061    c5.672-27.362,15.128-65.711,27.974-93.019C347.929,191.239,346.297,186.71,342.497,184.922z" fill="#aed4eb"/>
	</g>
</g>
<g>
	<g>
		<path d="M493.352,222.564c-0.326-0.082-2.952-0.691-6.803-0.352v-8.155c0-4.199-3.403-7.603-7.603-7.603    c-4.2,0-7.603,3.404-7.603,7.603v14.282c-6.024,4.65-12.154,12.63-16.769,26.184c-2.841,8.341-7.913,12.756-15.509,13.496    c-10.824,1.054-23.723-5.766-28.439-12.653c-3.765-19.87-6.559-39.954-8.296-56.987c-0.426-4.178-4.149-7.222-8.335-6.793    c-4.177,0.426-7.219,4.157-6.792,8.335c1.478,14.503,9.477,85.548,28.052,128.763c-15.296,5.988-53.646,17.865-86.074,2.039    c-3.773-1.843-8.326-0.275-10.167,3.498c-1.841,3.773-0.275,8.326,3.499,10.168c1.659,0.809,3.326,1.552,5,2.243    c5.706,13.609,30.372,81.394-9.141,154.134c-1.279,2.356-1.224,5.212,0.147,7.516c1.372,2.304,3.854,3.716,6.535,3.716h26.351    c4.2,0,7.603-3.404,7.603-7.603c0-4.199-3.403-7.603-7.603-7.603H337.39c19.395-41.725,19.963-80.81,16.7-107.139    c-1.943-15.67-5.374-28.567-8.357-37.624c6.887,1.311,13.734,1.869,20.371,1.869c11.825,0,22.976-1.745,32.516-4.024    c7.288,19.019,26.557,82.785-10.44,150.891c-1.279,2.356-1.224,5.212,0.147,7.516c1.372,2.304,3.854,3.716,6.535,3.716h26.352    c4.2,0,7.603-3.404,7.603-7.603c0-4.199-3.403-7.603-7.603-7.603h-14.014c19.396-41.725,19.964-80.81,16.701-107.139    c-2.46-19.839-7.304-35.229-10.602-44.01c9.043-3.069,14.813-5.9,15.535-6.262c1.803-0.902,3.176-2.483,3.814-4.397    c0.638-1.913,0.489-4.001-0.413-5.805c-6.55-13.1-12.185-31.337-16.823-51.129c6.553,3.225,14.006,5.281,21.404,5.28    c1.246,0,2.491-0.059,3.728-0.179c13.573-1.323,23.669-9.75,28.428-23.73c2.217-6.51,4.721-11.12,7.208-14.379l13.266,1.251    c3.997,0.381,7.617-2.433,8.229-6.414l1.351-8.786C499.619,227.215,497.162,223.517,493.352,222.564z" fill="#aed4eb"/>
	</g>
</g>
<g>
	<g>
		<path d="M262.92,82.419c-4.2,0-7.603,3.404-7.603,7.603v10.541c0,4.199,3.403,7.603,7.603,7.603c4.2,0,7.603-3.404,7.603-7.603    V90.023C270.523,85.823,267.12,82.419,262.92,82.419z" fill="#aed4eb"/>
	</g>
</g>
<g>
	<g>
		<path d="M290.325,82.419c-4.2,0-7.603,3.404-7.603,7.603v10.541c0,4.199,3.403,7.603,7.603,7.603c4.2,0,7.603-3.404,7.603-7.603    V90.023C297.928,85.823,294.525,82.419,290.325,82.419z" fill="#aed4eb"/>
	</g>
</g>
<g>
	<g>
		<path d="M266.222,140.585c-9.449-0.506-15.955-4.099-19.89-10.986c-2.083-3.647-6.728-4.913-10.373-2.829    c-3.646,2.083-4.914,6.727-2.829,10.374c6.518,11.405,17.68,17.846,32.283,18.626c0.138,0.007,0.275,0.011,0.412,0.011    c4.013,0,7.369-3.143,7.585-7.198C273.633,144.39,270.415,140.809,266.222,140.585z" fill="#aed4eb"/>
	</g>
</g>
<g>
	<g>
		<path d="M324.328,369.39c-0.345-0.999-34.547-100.722-44.995-174.797c-0.586-4.159-4.429-7.054-8.592-6.467    c-4.158,0.587-7.053,4.432-6.467,8.591c5.577,39.538,17.704,85.741,26.895,117.539c6.61,22.863,12.695,41.783,16.057,51.966    c-40.545,8.145-74.837,6.676-97.003,3.852c-4.149-0.529-7.971,2.416-8.502,6.581c-0.531,4.166,2.416,7.972,6.581,8.503    c2.176,0.277,4.468,0.54,6.859,0.786c4.48,29.079,3.966,70.982-19.85,114.824c-1.279,2.356-1.224,5.212,0.147,7.516    c1.372,2.304,3.854,3.716,6.535,3.716h26.358c4.2,0,7.603-3.404,7.603-7.603s-3.403-7.603-7.603-7.603h-14.014    c19.408-41.669,20.277-80.934,16.356-109.669c4.922,0.246,10.141,0.389,15.63,0.389c5.88,0,12.08-0.171,18.545-0.545    c4.306,29.039,3.534,70.477-20.002,113.799c-1.28,2.356-1.225,5.212,0.146,7.516c1.372,2.304,3.854,3.716,6.535,3.716h26.348    c4.2,0,7.603-3.404,7.603-7.603s-3.402-7.604-7.602-7.604h-14.004c19.718-42.332,20.303-82.204,16.169-111.059    c12.202-1.283,25.19-3.346,38.776-6.456c2.103-0.482,3.903-1.834,4.95-3.721C324.834,373.672,325.031,371.43,324.328,369.39z" fill="#aed4eb"/>
	</g>
</g>
<g>
	<g>
		<path d="M310.062,20.539C296.305,6.753,273.749,0.05,241.102,0.05c-14.863,0-27.962,1.763-38.934,5.239    c-4.002,1.268-6.219,5.541-4.951,9.545c1.267,4.003,5.538,6.221,9.545,4.951c9.484-3.005,21.038-4.529,34.34-4.529    c51.835,0,64.503,18.56,67.601,33.624c-21.947-9.92-41.682-13.001-58.78-9.099c-19.642,4.481-31.095,16.907-37.244,26.543    c-5.177,8.114-8.524,17.503-8.524,23.919c0,4.199,3.403,7.603,7.603,7.603c4.2,0,7.603-3.404,7.603-7.603    c0-1.998,1.499-8.474,6.136-15.739c9.368-14.681,32.646-34.848,84.211-8.278v49.23c0,30.946-25.181,56.122-56.132,56.122    c-4.525,0-8.994-0.533-13.302-1.591c-14.252-3.458-26.419-12.238-34.261-24.724c-2.232-3.556-6.927-4.626-10.482-2.395    c-3.556,2.233-4.628,6.927-2.393,10.482c9.961,15.86,25.428,27.016,43.532,31.409c5.472,1.342,11.162,2.023,16.907,2.023    c39.336,0,71.339-31.998,71.339-71.329V61.654C324.916,44.007,320.057,30.557,310.062,20.539z" fill="#aed4eb"/>
	</g>
</g>
<g>
	<g>
		<path d="M216.696,183.05c-3.656-2.071-8.295-0.79-10.366,2.863c-9.833,17.341-23.441,46.958-32.417,89.569    c-0.866,4.109,1.764,8.142,5.873,9.007c0.528,0.111,1.055,0.165,1.575,0.165c3.519,0,6.678-2.457,7.432-6.038    c8.573-40.701,21.462-68.798,30.765-85.202C221.63,189.762,220.348,185.122,216.696,183.05z" fill="#aed4eb"/>
	</g>
</g>
<g>
	<g>
		<path d="M89.58,183.05c-3.655-2.071-8.295-0.79-10.365,2.863c-12.902,22.749-29.911,62.083-37.674,120.28    c-0.555,4.162,2.369,7.986,6.532,8.542c0.341,0.046,0.679,0.068,1.015,0.068c3.752,0,7.017-2.778,7.527-6.599    c7.44-55.781,23.589-93.211,35.827-114.789C94.514,189.762,93.231,185.122,89.58,183.05z" fill="#aed4eb"/>
	</g>
</g>
<g>
	<g>
		<path d="M197.21,369.389c-0.345-0.999-34.543-100.69-44.995-174.797c-0.587-4.158-4.431-7.054-8.592-6.467    c-4.158,0.587-7.053,4.432-6.467,8.591c5.577,39.538,17.704,85.741,26.895,117.539c6.61,22.864,12.695,41.783,16.057,51.966    c-63.202,12.691-112.006,2.136-127.421-2.043c0.111-9.873,0.511-19.667,1.194-29.191c0.301-4.189-2.852-7.827-7.04-8.127    c-4.179-0.297-7.826,2.852-8.127,7.04c-0.839,11.703-1.265,23.795-1.265,35.941c0,3.231,2.043,6.109,5.091,7.177    c1.315,0.46,18.044,6.167,45.515,8.998c4.468,29.077,3.936,70.946-19.86,114.753c-1.279,2.356-1.224,5.212,0.147,7.516    c1.372,2.304,3.854,3.716,6.535,3.716h26.358c4.2,0,7.603-3.404,7.603-7.603s-3.403-7.603-7.603-7.603H87.223    c19.39-41.633,20.276-80.867,16.365-109.596c4.921,0.247,10.08,0.391,15.478,0.391c5.957,0,12.204-0.178,18.696-0.562    c4.297,29.036,3.51,70.448-20.011,113.741c-1.28,2.356-1.225,5.212,0.146,7.516c1.372,2.304,3.854,3.716,6.535,3.716h26.347    c4.2,0,7.603-3.404,7.603-7.603s-3.403-7.603-7.603-7.603h-14.003c19.71-42.314,20.303-82.169,16.175-111.021    c12.223-1.304,25.191-3.386,38.769-6.494c2.103-0.482,3.902-1.834,4.949-3.721C197.716,373.672,197.914,371.43,197.21,369.389z" fill="#aed4eb"/>
	</g>
</g>
<g>
	<g>
		<path d="M135.803,82.419c-4.2,0-7.603,3.404-7.603,7.603v10.541c0,4.199,3.403,7.603,7.603,7.603c4.2,0,7.603-3.404,7.603-7.603    V90.023C143.407,85.823,140.004,82.419,135.803,82.419z" fill="#aed4eb"/>
	</g>
</g>
<g>
	<g>
		<path d="M163.21,82.419c-4.2,0-7.603,3.404-7.603,7.603v10.541c0,4.199,3.403,7.603,7.603,7.603c4.2,0,7.603-3.404,7.603-7.603    V90.023C170.813,85.823,167.41,82.419,163.21,82.419z" fill="#aed4eb"/>
	</g>
</g>
<g>
	<g>
		<path d="M139.105,140.585c-9.448-0.506-15.955-4.099-19.89-10.986c-2.083-3.647-6.728-4.913-10.373-2.829    c-3.647,2.083-4.914,6.727-2.829,10.374c6.517,11.405,17.68,17.846,32.283,18.626c0.138,0.007,0.275,0.011,0.412,0.011    c4.012,0,7.369-3.144,7.585-7.198C146.517,144.39,143.299,140.809,139.105,140.585z" fill="#aed4eb"/>
	</g>
</g>
<g>
	<g>
		<path d="M190.194,77.087c-4.2,0-7.603,3.404-7.603,7.603v30.768c0,30.946-25.181,56.122-56.132,56.122    c-27.91,0-51.811-20.815-55.595-48.417c-0.387-2.825-2.323-5.196-5.013-6.141c-1.851-0.65-3.498-1.689-4.902-3.093    c-2.444-2.442-3.79-5.69-3.79-9.147s1.346-6.706,3.795-9.151c1.312-1.312,2.822-2.3,4.505-2.942    c4.774-1.834,10.192-0.682,13.75,2.875c2.158,2.213,5.443,2.898,8.308,1.733c2.864-1.166,4.737-3.95,4.737-7.043v-8.781    c16.358,2.589,40.845,0.304,59.755-19.681c14.342,8.041,35.702,7.561,38.457,7.462c3.332-0.12,6.198-2.397,7.068-5.615    c2.124-7.858,5.726-27.88-6.648-44.041c-9.932-12.971-27.173-19.548-51.245-19.548c-26.929,0-55.151,0.995-78.247,12.892    C35.265,26.403,19.931,51.606,14.517,89.993C6.653,145.758,29.09,199.057,43.164,225.865c1.359,2.59,4.002,4.07,6.737,4.07    c1.192,0,2.401-0.281,3.528-0.873c3.718-1.952,5.149-6.548,3.197-10.266c-13.224-25.187-34.322-75.137-27.053-126.679    c10.04-71.201,53.845-76.86,110.068-76.86c19.089,0,32.268,4.571,39.171,13.586c6.19,8.085,6.137,18.422,5.19,25.143    c-8.719-0.413-22.214-2.225-27.833-7.845c-1.547-1.547-3.682-2.354-5.868-2.211c-2.183,0.141-4.199,1.216-5.533,2.949    C122.049,76.388,88.6,65.121,87.217,64.637c-2.331-0.834-4.919-0.484-6.942,0.94c-2.022,1.424-3.227,3.744-3.227,6.217v5.7    c-5.534-1.407-11.483-1.134-17.023,0.992c-3.682,1.404-6.987,3.554-9.821,6.389c-5.321,5.314-8.252,12.384-8.252,19.907    c0,7.522,2.931,14.592,8.248,19.902c1.895,1.896,4.005,3.487,6.307,4.759c6.569,32.975,35.916,57.343,69.953,57.343    c39.336,0,71.339-31.998,71.339-71.329V84.69C197.797,80.491,194.394,77.087,190.194,77.087z" fill="#aed4eb"/>
	</g>
</g>
<g>
	<g>
		<path d="M146.622,289.695c-4.739-5.686-9.741-8.672-15.292-9.127c-8.834-0.725-15.691,5.198-22.326,10.925    c-9.284,8.016-15.44,12.718-24.58,8.607c-2.247-1.012-3.486-2.472-4.143-4.883c-3.818-14.023,14.081-46.517,26.259-63.704    c2.429-3.424,1.621-8.17-1.802-10.599c-3.426-2.43-8.172-1.622-10.601,1.802c-3.651,5.145-35.46,51.005-28.529,76.489    c1.845,6.785,6.195,11.89,12.578,14.762c4.507,2.028,8.713,2.868,12.629,2.868c12.104-0.001,21.415-8.036,28.128-13.832    c4.063-3.508,8.7-7.481,11.144-7.281c1.204,0.098,2.974,1.451,4.856,3.708c2.688,3.226,7.483,3.661,10.708,0.972    C148.876,297.715,149.311,292.921,146.622,289.695z" fill="#aed4eb"/>
	</g>
</g>
<g>
</g>
<g>
</g>
<g>
</g>
<g>
</g>
<g>
</g>
<g>
</g>
<g>
</g>
<g>
</g>
<g>
</g>
<g>
</g>
<g>
</g>
<g>
</g>
<g>
</g>
<g>
</g>
<g>
</g>
</svg>
